<?xml version="1.0" encoding="UTF-8"?><svg xmlns="http://www.w3.org/2000/svg" xmlns:xlink="http://www.w3.org/1999/xlink" width="375" zoomAndPan="magnify" viewBox="0 0 375 374.999991" height="374.999991" preserveAspectRatio="xMidYMid meet" version="1.0"><defs><clipPath id="clip-0"><path d="M 37.5 0 L 337.5 0 L 337.5 375 L 37.5 375 Z M 37.5 0 " clip-rule="nonzero"/></clipPath></defs><g clip-path="url(#clip-0)"><path fill="rgb(100%, 100%, 100%)" d="M 215.625 0 L 159.375 0 C 92.214844 0 37.5 54.714844 37.5 121.875 L 37.5 159.375 C 37.5 278.265625 134.234375 375 253.125 375 L 328.125 375 C 328.742188 375 329.351562 374.941406 329.953125 374.820312 C 330.558594 374.699219 331.144531 374.523438 331.710938 374.285156 C 332.28125 374.050781 332.820312 373.761719 333.332031 373.421875 C 333.84375 373.078125 334.320312 372.6875 334.753906 372.253906 C 335.1875 371.820312 335.578125 371.34375 335.921875 370.832031 C 336.261719 370.320312 336.550781 369.78125 336.785156 369.210938 C 337.023438 368.644531 337.199219 368.058594 337.320312 367.453125 C 337.441406 366.851562 337.5 366.242188 337.5 365.625 L 337.5 121.875 C 337.5 54.714844 282.785156 0 215.625 0 Z M 159.375 18.75 L 215.625 18.75 C 223.011719 18.753906 230.308594 19.546875 237.523438 21.128906 C 244.738281 22.707031 251.699219 25.042969 258.410156 28.125 C 224.828125 35.625 200.027344 56.675781 187.5 88.039062 C 174.972656 56.675781 150.171875 35.625 116.589844 28.125 C 123.300781 25.042969 130.261719 22.707031 137.476562 21.128906 C 144.691406 19.546875 151.988281 18.753906 159.375 18.75 Z M 91.875 44.0625 C 145.226562 45.085938 178.125 83.609375 178.125 140.625 C 178.125 141.242188 178.183594 141.851562 178.304688 142.453125 C 178.425781 143.058594 178.601562 143.644531 178.839844 144.210938 C 179.074219 144.78125 179.363281 145.320312 179.703125 145.832031 C 180.046875 146.34375 180.4375 146.820312 180.871094 147.253906 C 181.304688 147.6875 181.78125 148.078125 182.292969 148.421875 C 182.804688 148.761719 183.34375 149.050781 183.914062 149.285156 C 184.480469 149.523438 185.066406 149.699219 185.671875 149.820312 C 186.273438 149.941406 186.882812 150 187.5 150 C 188.117188 150 188.726562 149.941406 189.328125 149.820312 C 189.933594 149.699219 190.519531 149.523438 191.085938 149.285156 C 191.65625 149.050781 192.195312 148.761719 192.707031 148.421875 C 193.21875 148.078125 193.695312 147.6875 194.128906 147.253906 C 194.5625 146.820312 194.953125 146.34375 195.296875 145.832031 C 195.636719 145.320312 195.925781 144.78125 196.160156 144.210938 C 196.398438 143.644531 196.574219 143.058594 196.695312 142.453125 C 196.816406 141.851562 196.875 141.242188 196.875 140.625 C 196.875 83.609375 229.773438 45.085938 283.125 44.0625 C 285.910156 46.46875 288.554688 49.019531 291.066406 51.710938 C 293.578125 54.402344 295.9375 57.222656 298.144531 60.167969 C 300.351562 63.113281 302.398438 66.164062 304.277344 69.328125 C 306.160156 72.492188 307.867188 75.75 309.398438 79.09375 C 310.929688 82.441406 312.277344 85.859375 313.445312 89.351562 C 314.609375 92.84375 315.585938 96.386719 316.371094 99.984375 C 317.160156 103.578125 317.75 107.207031 318.148438 110.863281 C 318.546875 114.523438 318.746094 118.195312 318.75 121.875 C 318.75 179.488281 264.886719 243.75 187.5 243.75 C 106.191406 243.75 56.25 172.753906 56.25 121.875 C 56.253906 118.195312 56.453125 114.523438 56.851562 110.863281 C 57.25 107.207031 57.839844 103.578125 58.628906 99.984375 C 59.414062 96.386719 60.390625 92.84375 61.554688 89.351562 C 62.722656 85.859375 64.070312 82.441406 65.601562 79.09375 C 67.132812 75.75 68.839844 72.492188 70.722656 69.328125 C 72.601562 66.164062 74.648438 63.113281 76.855469 60.167969 C 79.0625 57.222656 81.421875 54.402344 83.933594 51.710938 C 86.445312 49.019531 89.089844 46.46875 91.875 44.0625 Z M 58.890625 190.058594 C 84.628906 230.625 131.335938 262.5 187.5 262.5 C 197.136719 262.496094 206.6875 261.578125 216.148438 259.742188 C 225.609375 257.910156 234.808594 255.191406 243.75 251.589844 L 243.75 253.125 C 243.75 298.890625 255.9375 333.410156 279.972656 356.25 L 253.125 356.25 C 155.027344 356.25 73.722656 284.0625 58.890625 190.058594 Z M 318.75 356.25 L 311.933594 356.25 C 278.777344 338.777344 262.5 305.113281 262.5 253.125 L 262.5 242.640625 C 268.296875 239.308594 273.855469 235.613281 279.171875 231.554688 C 284.488281 227.496094 289.523438 223.113281 294.269531 218.402344 C 299.015625 213.691406 303.4375 208.691406 307.535156 203.40625 C 311.632812 198.121094 315.371094 192.589844 318.75 186.816406 Z M 318.75 356.25 " fill-opacity="1" fill-rule="nonzero"/></g><path fill="rgb(100%, 100%, 100%)" d="M 131.25 112.5 C 131.25 113.113281 131.21875 113.726562 131.160156 114.335938 C 131.097656 114.949219 131.007812 115.554688 130.890625 116.15625 C 130.769531 116.761719 130.621094 117.355469 130.441406 117.941406 C 130.265625 118.53125 130.058594 119.109375 129.824219 119.675781 C 129.585938 120.242188 129.324219 120.796875 129.035156 121.339844 C 128.746094 121.878906 128.429688 122.40625 128.089844 122.917969 C 127.75 123.425781 127.382812 123.921875 126.992188 124.394531 C 126.605469 124.871094 126.191406 125.324219 125.757812 125.757812 C 125.324219 126.191406 124.871094 126.605469 124.394531 126.992188 C 123.921875 127.382812 123.425781 127.75 122.917969 128.089844 C 122.40625 128.429688 121.878906 128.746094 121.339844 129.035156 C 120.796875 129.324219 120.242188 129.585938 119.675781 129.824219 C 119.109375 130.058594 118.53125 130.265625 117.941406 130.441406 C 117.355469 130.621094 116.761719 130.769531 116.15625 130.890625 C 115.554688 131.007812 114.949219 131.097656 114.335938 131.160156 C 113.726562 131.21875 113.113281 131.25 112.5 131.25 C 111.886719 131.25 111.273438 131.21875 110.664062 131.160156 C 110.050781 131.097656 109.445312 131.007812 108.84375 130.890625 C 108.238281 130.769531 107.644531 130.621094 107.058594 130.441406 C 106.46875 130.265625 105.890625 130.058594 105.324219 129.824219 C 104.757812 129.585938 104.203125 129.324219 103.660156 129.035156 C 103.121094 128.746094 102.59375 128.429688 102.082031 128.089844 C 101.574219 127.75 101.078125 127.382812 100.605469 126.992188 C 100.128906 126.605469 99.675781 126.191406 99.242188 125.757812 C 98.808594 125.324219 98.394531 124.871094 98.007812 124.394531 C 97.617188 123.921875 97.25 123.425781 96.910156 122.917969 C 96.570312 122.40625 96.253906 121.878906 95.964844 121.339844 C 95.675781 120.796875 95.414062 120.242188 95.175781 119.675781 C 94.941406 119.109375 94.734375 118.53125 94.558594 117.941406 C 94.378906 117.355469 94.230469 116.761719 94.109375 116.15625 C 93.992188 115.554688 93.902344 114.949219 93.839844 114.335938 C 93.78125 113.726562 93.75 113.113281 93.75 112.5 C 93.75 111.886719 93.78125 111.273438 93.839844 110.664062 C 93.902344 110.050781 93.992188 109.445312 94.109375 108.84375 C 94.230469 108.238281 94.378906 107.644531 94.558594 107.058594 C 94.734375 106.46875 94.941406 105.890625 95.175781 105.324219 C 95.414062 104.757812 95.675781 104.203125 95.964844 103.660156 C 96.253906 103.121094 96.570312 102.59375 96.910156 102.082031 C 97.25 101.574219 97.617188 101.078125 98.007812 100.605469 C 98.394531 100.128906 98.808594 99.675781 99.242188 99.242188 C 99.675781 98.808594 100.128906 98.394531 100.605469 98.007812 C 101.078125 97.617188 101.574219 97.25 102.082031 96.910156 C 102.59375 96.570312 103.121094 96.253906 103.660156 95.964844 C 104.203125 95.675781 104.757812 95.414062 105.324219 95.175781 C 105.890625 94.941406 106.46875 94.734375 107.058594 94.558594 C 107.644531 94.378906 108.238281 94.230469 108.84375 94.109375 C 109.445312 93.992188 110.050781 93.902344 110.664062 93.839844 C 111.273438 93.78125 111.886719 93.75 112.5 93.75 C 113.113281 93.75 113.726562 93.78125 114.335938 93.839844 C 114.949219 93.902344 115.554688 93.992188 116.15625 94.109375 C 116.761719 94.230469 117.355469 94.378906 117.941406 94.558594 C 118.53125 94.734375 119.109375 94.941406 119.675781 95.175781 C 120.242188 95.414062 120.796875 95.675781 121.339844 95.964844 C 121.878906 96.253906 122.40625 96.570312 122.917969 96.910156 C 123.425781 97.25 123.921875 97.617188 124.394531 98.007812 C 124.871094 98.394531 125.324219 98.808594 125.757812 99.242188 C 126.191406 99.675781 126.605469 100.128906 126.992188 100.605469 C 127.382812 101.078125 127.75 101.574219 128.089844 102.082031 C 128.429688 102.59375 128.746094 103.121094 129.035156 103.660156 C 129.324219 104.203125 129.585938 104.757812 129.824219 105.324219 C 130.058594 105.890625 130.265625 106.46875 130.441406 107.058594 C 130.621094 107.644531 130.769531 108.238281 130.890625 108.84375 C 131.007812 109.445312 131.097656 110.050781 131.160156 110.664062 C 131.21875 111.273438 131.25 111.886719 131.25 112.5 Z M 131.25 112.5 " fill-opacity="1" fill-rule="nonzero"/><path fill="rgb(100%, 100%, 100%)" d="M 281.25 112.5 C 281.25 113.113281 281.21875 113.726562 281.160156 114.335938 C 281.097656 114.949219 281.007812 115.554688 280.890625 116.15625 C 280.769531 116.761719 280.621094 117.355469 280.441406 117.941406 C 280.265625 118.53125 280.058594 119.109375 279.824219 119.675781 C 279.585938 120.242188 279.324219 120.796875 279.035156 121.339844 C 278.746094 121.878906 278.429688 122.40625 278.089844 122.917969 C 277.75 123.425781 277.382812 123.921875 276.992188 124.394531 C 276.605469 124.871094 276.191406 125.324219 275.757812 125.757812 C 275.324219 126.191406 274.871094 126.605469 274.394531 126.992188 C 273.921875 127.382812 273.425781 127.75 272.917969 128.089844 C 272.40625 128.429688 271.878906 128.746094 271.339844 129.035156 C 270.796875 129.324219 270.242188 129.585938 269.675781 129.824219 C 269.109375 130.058594 268.53125 130.265625 267.941406 130.441406 C 267.355469 130.621094 266.761719 130.769531 266.15625 130.890625 C 265.554688 131.007812 264.949219 131.097656 264.335938 131.160156 C 263.726562 131.21875 263.113281 131.25 262.5 131.25 C 261.886719 131.25 261.273438 131.21875 260.664062 131.160156 C 260.050781 131.097656 259.445312 131.007812 258.84375 130.890625 C 258.238281 130.769531 257.644531 130.621094 257.058594 130.441406 C 256.46875 130.265625 255.890625 130.058594 255.324219 129.824219 C 254.757812 129.585938 254.203125 129.324219 253.660156 129.035156 C 253.121094 128.746094 252.59375 128.429688 252.082031 128.089844 C 251.574219 127.75 251.078125 127.382812 250.605469 126.992188 C 250.128906 126.605469 249.675781 126.191406 249.242188 125.757812 C 248.808594 125.324219 248.394531 124.871094 248.007812 124.394531 C 247.617188 123.921875 247.25 123.425781 246.910156 122.917969 C 246.570312 122.40625 246.253906 121.878906 245.964844 121.339844 C 245.675781 120.796875 245.414062 120.242188 245.175781 119.675781 C 244.941406 119.109375 244.734375 118.53125 244.558594 117.941406 C 244.378906 117.355469 244.230469 116.761719 244.109375 116.15625 C 243.992188 115.554688 243.902344 114.949219 243.839844 114.335938 C 243.78125 113.726562 243.75 113.113281 243.75 112.5 C 243.75 111.886719 243.78125 111.273438 243.839844 110.664062 C 243.902344 110.050781 243.992188 109.445312 244.109375 108.84375 C 244.230469 108.238281 244.378906 107.644531 244.558594 107.058594 C 244.734375 106.46875 244.941406 105.890625 245.175781 105.324219 C 245.414062 104.757812 245.675781 104.203125 245.964844 103.660156 C 246.253906 103.121094 246.570312 102.59375 246.910156 102.082031 C 247.25 101.574219 247.617188 101.078125 248.007812 100.605469 C 248.394531 100.128906 248.808594 99.675781 249.242188 99.242188 C 249.675781 98.808594 250.128906 98.394531 250.605469 98.007812 C 251.078125 97.617188 251.574219 97.25 252.082031 96.910156 C 252.59375 96.570312 253.121094 96.253906 253.660156 95.964844 C 254.203125 95.675781 254.757812 95.414062 255.324219 95.175781 C 255.890625 94.941406 256.46875 94.734375 257.058594 94.558594 C 257.644531 94.378906 258.238281 94.230469 258.84375 94.109375 C 259.445312 93.992188 260.050781 93.902344 260.664062 93.839844 C 261.273438 93.78125 261.886719 93.75 262.5 93.75 C 263.113281 93.75 263.726562 93.78125 264.335938 93.839844 C 264.949219 93.902344 265.554688 93.992188 266.15625 94.109375 C 266.761719 94.230469 267.355469 94.378906 267.941406 94.558594 C 268.53125 94.734375 269.109375 94.941406 269.675781 95.175781 C 270.242188 95.414062 270.796875 95.675781 271.339844 95.964844 C 271.878906 96.253906 272.40625 96.570312 272.917969 96.910156 C 273.425781 97.25 273.921875 97.617188 274.394531 98.007812 C 274.871094 98.394531 275.324219 98.808594 275.757812 99.242188 C 276.191406 99.675781 276.605469 100.128906 276.992188 100.605469 C 277.382812 101.078125 277.75 101.574219 278.089844 102.082031 C 278.429688 102.59375 278.746094 103.121094 279.035156 103.660156 C 279.324219 104.203125 279.585938 104.757812 279.824219 105.324219 C 280.058594 105.890625 280.265625 106.46875 280.441406 107.058594 C 280.621094 107.644531 280.769531 108.238281 280.890625 108.84375 C 281.007812 109.445312 281.097656 110.050781 281.160156 110.664062 C 281.21875 111.273438 281.25 111.886719 281.25 112.5 Z M 281.25 112.5 " fill-opacity="1" fill-rule="nonzero"/></svg>